<svg width="35" height="35" viewBox="0 0 35 35" fill="none" xmlns="http://www.w3.org/2000/svg">
<path d="M26.25 19.2208V14.5833C26.2479 12.5171 25.5146 10.5182 24.1801 8.94072C22.8455 7.36325 20.9957 6.30897 18.9583 5.96459V4.37501C18.9583 3.98823 18.8047 3.6173 18.5312 3.34381C18.2577 3.07032 17.8868 2.91667 17.5 2.91667C17.1132 2.91667 16.7423 3.07032 16.4688 3.34381C16.1953 3.6173 16.0417 3.98823 16.0417 4.37501V5.96459C14.0043 6.30897 12.1545 7.36325 10.8199 8.94072C9.48537 10.5182 8.7521 12.5171 8.75001 14.5833V19.2208C7.899 19.5217 7.16188 20.0784 6.63971 20.8147C6.11754 21.551 5.83588 22.4307 5.83334 23.3333V26.25C5.83334 26.6368 5.98699 27.0077 6.26048 27.2812C6.53397 27.5547 6.9049 27.7083 7.29168 27.7083H11.8708C12.2067 28.9441 12.9398 30.035 13.9571 30.8127C14.9745 31.5905 16.2194 32.0119 17.5 32.0119C18.7806 32.0119 20.0256 31.5905 21.0429 30.8127C22.0602 30.035 22.7933 28.9441 23.1292 27.7083H27.7083C28.0951 27.7083 28.466 27.5547 28.7395 27.2812C29.013 27.0077 29.1667 26.6368 29.1667 26.25V23.3333C29.1641 22.4307 28.8825 21.551 28.3603 20.8147C27.8381 20.0784 27.101 19.5217 26.25 19.2208ZM11.6667 14.5833C11.6667 13.0362 12.2813 11.5525 13.3752 10.4585C14.4692 9.36459 15.9529 8.75001 17.5 8.75001C19.0471 8.75001 20.5308 9.36459 21.6248 10.4585C22.7188 11.5525 23.3333 13.0362 23.3333 14.5833V18.9583H11.6667V14.5833ZM17.5 29.1667C16.991 29.1636 16.4917 29.0274 16.0516 28.7715C15.6116 28.5157 15.2462 28.1492 14.9917 27.7083H20.0083C19.7538 28.1492 19.3884 28.5157 18.9484 28.7715C18.5083 29.0274 18.009 29.1636 17.5 29.1667ZM26.25 24.7917H8.75001V23.3333C8.75001 22.9466 8.90366 22.5756 9.17715 22.3021C9.45064 22.0287 9.82157 21.875 10.2083 21.875H24.7917C25.1784 21.875 25.5494 22.0287 25.8229 22.3021C26.0964 22.5756 26.25 22.9466 26.25 23.3333V24.7917Z" fill="#4A5056"/>
</svg>
