<svg width="32" height="32" viewBox="0 0 32 32" fill="none" xmlns="http://www.w3.org/2000/svg">
<g id="cloud-computing (1) 1" clip-path="url(#clip0_527_5981)">
<g id="Group">
<g id="Group_2">
<g id="Group_3">
<path id="Vector" d="M5.33822 11.7628C6.81718 5.87106 12.7922 2.29383 18.6839 3.77279C23.2882 4.9286 26.6314 8.90798 26.9759 13.6425C30.2451 14.1817 32.4583 17.2689 31.9191 20.5381C31.4399 23.4445 28.9215 25.5729 25.976 25.5612H20.9765V23.5614H25.976C28.1848 23.5614 29.9755 21.7708 29.9755 19.5619C29.9755 17.353 28.1848 15.5623 25.976 15.5623C25.4237 15.5623 24.9761 15.1147 24.9761 14.5624C24.9811 9.59241 20.9561 5.55935 15.9861 5.55441C11.6838 5.5501 7.98025 8.59164 7.14802 12.8126C7.06585 13.2341 6.72382 13.556 6.29812 13.6125C3.56454 14.0018 1.66419 16.5333 2.05339 19.2668C2.40292 21.7215 4.49869 23.5491 6.97804 23.5614H10.9776V25.5612H6.97804C3.11246 25.5495 -0.011692 22.4064 5.53131e-05 18.5408C0.00980377 15.323 2.21231 12.5264 5.33822 11.7628Z" fill="#222529"/>
<path id="Vector_2" d="M16.687 15.8523L20.6865 19.8519L19.2767 21.2617L16.9769 18.972V28.5609H14.9771V18.972L12.6874 21.2617L11.2776 19.8519L15.2771 15.8523C15.6671 15.4646 16.2969 15.4646 16.687 15.8523Z" fill="#222529"/>
</g>
</g>
</g>
</g>
<defs>
<clipPath id="clip0_527_5981">
<rect width="32" height="32" fill="white" transform="matrix(-1 0 0 1 32 0)"/>
</clipPath>
</defs>
</svg>
