<svg width="16" height="16" viewBox="0 0 16 16" fill="none" xmlns="http://www.w3.org/2000/svg">
<g id="Icon">
<path id="Vector" fill-rule="evenodd" clip-rule="evenodd" d="M5.78201 11.7271C5.97542 11.9117 6.23297 12.014 6.50033 12.0123C6.76769 12.0106 7.02394 11.9052 7.21501 11.7181L12.487 6.53714C12.6282 6.39992 12.7406 6.23596 12.8178 6.05483C12.8949 5.8737 12.9352 5.67903 12.9363 5.48216C12.9374 5.28529 12.8993 5.09017 12.8243 4.90817C12.7492 4.72618 12.6386 4.56096 12.499 4.42214C12.3605 4.28243 12.1953 4.172 12.0132 4.0974C11.8312 4.0228 11.636 3.98556 11.4392 3.9879C11.2425 3.99023 11.0482 4.03208 10.868 4.11098C10.6877 4.18987 10.5252 4.30419 10.39 4.44714L6.84601 8.12314C6.80177 8.16994 6.74828 8.20705 6.68894 8.23209C6.62961 8.25714 6.56571 8.26959 6.50131 8.26865C6.43691 8.26771 6.37341 8.2534 6.31483 8.22663C6.25625 8.19986 6.20387 8.16122 6.16101 8.11314L5.57401 7.47214C5.44462 7.32673 5.28672 7.20947 5.11011 7.12764C4.9335 7.04581 4.74196 7.00117 4.54737 6.99648C4.35278 6.99179 4.15931 7.02716 3.97896 7.10038C3.79862 7.17361 3.63525 7.28313 3.49901 7.42214C3.35988 7.56045 3.24977 7.72515 3.17515 7.90659C3.10054 8.08803 3.06292 8.28254 3.0645 8.47872C3.06608 8.67489 3.10684 8.86877 3.18437 9.04898C3.26191 9.22919 3.37466 9.3921 3.51601 9.52814L5.78201 11.7271Z" fill="#11AF22"/>
</g>
</svg>
