<svg width="34" height="34" viewBox="0 0 34 34" fill="none" xmlns="http://www.w3.org/2000/svg">
<path d="M17 8.5C15.5225 8.50187 14.106 9.08965 13.0612 10.1344C12.0165 11.1792 11.4287 12.5956 11.4268 14.0732H14.2602C14.2602 12.5616 15.4898 11.3333 17 11.3333C18.5102 11.3333 19.7398 12.5616 19.7398 14.0732C19.7398 14.9203 19.0584 15.5352 18.0172 16.3767C17.677 16.6431 17.3503 16.9264 17.0383 17.2253C15.6244 18.6377 15.5833 20.1379 15.5833 20.3051V21.25H18.4167L18.4152 20.3532C18.4167 20.3306 18.462 19.8064 19.04 19.2298C19.2525 19.0173 19.5203 18.8048 19.7979 18.581C20.9015 17.6871 22.5717 16.337 22.5717 14.0732C22.5706 12.5957 21.9833 11.179 20.9387 10.1341C19.894 9.0892 18.4775 8.5015 17 8.5ZM15.5833 22.6667H18.4167V25.5H15.5833V22.6667Z" fill="#4A5056"/>
<path d="M17 2.83333C9.1885 2.83333 2.83333 9.1885 2.83333 17C2.83333 24.8115 9.1885 31.1667 17 31.1667C24.8115 31.1667 31.1667 24.8115 31.1667 17C31.1667 9.1885 24.8115 2.83333 17 2.83333ZM17 28.3333C10.7511 28.3333 5.66666 23.2489 5.66666 17C5.66666 10.7511 10.7511 5.66666 17 5.66666C23.2489 5.66666 28.3333 10.7511 28.3333 17C28.3333 23.2489 23.2489 28.3333 17 28.3333Z" fill="#4A5056"/>
</svg>
