<svg width="12" height="12" viewBox="0 0 12 12" fill="none" xmlns="http://www.w3.org/2000/svg">
<g id="info-button 2" clip-path="url(#clip0_481_3441)">
<g id="Group">
<g id="Group_2">
<path id="Vector" d="M10.243 1.72634C7.89986 -0.57548 4.10073 -0.575736 1.75729 1.72634C-0.585893 4.02841 -0.585632 7.76088 1.75729 10.0632C4.10047 12.3648 7.8996 12.365 10.243 10.0632C12.586 7.76088 12.5857 4.02867 10.243 1.72634ZM6.78253 8.45776C6.78253 8.88245 6.43217 9.22665 5.9999 9.22665C5.56763 9.22665 5.21728 8.88245 5.21728 8.45776V5.38218C5.21728 4.95749 5.56763 4.61328 5.9999 4.61328C6.43217 4.61328 6.78253 4.95749 6.78253 5.38218V8.45776ZM5.98608 4.06788C5.53528 4.06788 5.23476 3.75417 5.24415 3.3669C5.23476 2.96093 5.53528 2.6567 5.99521 2.6567C6.45539 2.6567 6.74653 2.96118 6.75618 3.3669C6.75592 3.75417 6.45565 4.06788 5.98608 4.06788Z" fill="#A0A6C0"/>
</g>
</g>
</g>
<defs>
<clipPath id="clip0_481_3441">
<rect width="12" height="11.7895" fill="white"/>
</clipPath>
</defs>
</svg>
