<svg width="83" height="56" viewBox="0 0 83 56" fill="none" xmlns="http://www.w3.org/2000/svg">
<g id="Tradesutra logo 1" clip-path="url(#clip0_1077_2604)">
<g id="Group 6">
<g id="Group" filter="url(#filter0_d_1077_2604)">
<path id="Path 3" d="M68.9226 22.7876C68.1042 25.0589 65.3899 26.2844 63.7735 29.2804C61.2523 33.9533 61.3845 33.1472 60.9778 33.1472C60.5712 33.1472 57.0233 32.4937 56.7539 31.6168C56.4845 30.74 58.2534 30.9598 58.3194 29.3512C58.3855 27.7425 58.66 25.3368 57.7756 24.7521C56.8911 24.1674 50.9592 24.3109 49.597 25.1877C48.2347 26.0646 45.3679 0.625679 45.3679 0.625679C54.9138 2.55375 64.5207 10.8053 67.9975 17.5215C68.3525 18.1906 68.6451 18.8906 68.8718 19.6128C69.2392 20.6367 69.2571 21.7526 68.9226 22.7876Z" fill="url(#paint0_linear_1077_2604)"/>
</g>
<g id="Group_2" filter="url(#filter1_d_1077_2604)">
<path id="Path 4" d="M62.2349 10.1245C57.6897 5.73469 51.5173 1.86743 45.3679 0.623154C45.3679 0.623154 48.2347 26.0646 49.597 25.1852C50.2131 24.7885 51.7649 24.5419 53.3615 24.4443C53.6349 18.3634 57.3206 12.9972 62.2349 10.1245Z" fill="url(#paint1_linear_1077_2604)"/>
</g>
<g id="Path 5" style="mix-blend-mode:multiply" opacity="0.3">
<path d="M52.322 20.2177C51.6698 16.7578 51.0289 13.264 49.8638 9.95118C49.71 9.49578 49.5231 9.05206 49.3047 8.62352C48.9512 7.86059 48.5411 7.12489 48.0777 6.42253C48.19 6.62216 47.4779 5.79787 47.0916 5.37334C47.0946 5.49008 45.4523 4.37619 46.351 4.77141C46.1741 4.69358 46.0007 4.60918 45.83 4.51871C46.6971 11.6119 48.5748 25.8463 49.6 25.1862C50.5399 24.5798 53.6497 24.3271 55.7805 24.415C54.9056 24.0455 54.134 23.4706 53.5316 22.7396C52.9293 22.0086 52.5142 21.1432 52.322 20.2177Z" fill="#191D8A"/>
</g>
<g id="Path 6" style="mix-blend-mode:multiply" opacity="0.3">
<path d="M68.7574 21.4645C68.1393 21.0942 67.6343 20.5635 67.2963 19.9296C66.9584 19.2956 66.8003 18.5821 66.8391 17.8656C66.497 19.028 65.7884 22.212 68.4707 21.6121C68.6055 21.5831 68.7423 21.5642 68.8799 21.5555C68.8413 21.5257 68.8021 21.4908 68.7574 21.4645Z" fill="#191D8A"/>
</g>
<g id="Group_3" filter="url(#filter2_d_1077_2604)">
<path id="Path 7" d="M11.389 20.0156C9.02286 21.8239 4.14723 19.774 4.66214 13.9509C4.66214 13.9509 2.81701 22.3702 10.9722 22.1791C11.1196 22.1756 11.2513 22.17 11.389 22.165V20.0156Z" fill="url(#paint2_linear_1077_2604)"/>
</g>
<g id="Group_4" filter="url(#filter3_d_1077_2604)">
<path id="Path 8" d="M36.7974 4.69206C34.0053 10.9994 27.6084 14.1389 21.9017 15.1284C16.195 16.118 13.2199 37.4991 17.0443 34.4127C20.8688 31.3262 29.6197 29.6185 35.2085 34.4127C40.7973 39.2068 36.7974 4.69206 36.7974 4.69206Z" fill="url(#paint3_linear_1077_2604)"/>
</g>
<g id="Group_5" filter="url(#filter4_d_1077_2604)">
<path id="Path 9" d="M33.8971 20.2966C30.8142 25.5779 24.7817 27.1851 19.6733 24.2932C18.6414 23.694 17.739 22.8977 17.0179 21.9502C14.9379 28.2712 14.5862 36.3963 17.0443 34.4127C20.8683 31.3268 29.6197 29.6185 35.2085 34.4127C38.9933 37.6588 38.3808 22.8837 37.5909 13.0033C36.5116 15.5075 35.278 17.9433 33.8971 20.2966Z" fill="url(#paint4_linear_1077_2604)"/>
</g>
<g id="Path 10" style="mix-blend-mode:multiply" opacity="0.3">
<path d="M34.2742 25.0452C32.268 29.5493 26.5831 30.3564 22.8644 28.2514C18.8849 25.9984 18.0828 20.8404 19.593 16.7249C15.4732 21.835 13.7775 37.0488 17.0443 34.4137C20.8683 31.3278 29.6197 29.6195 35.2085 34.4137C38.4108 37.162 38.4647 26.9945 37.9264 17.8151C36.6444 20.1778 35.3823 22.5567 34.2742 25.0452Z" fill="#191D8A"/>
</g>
<g id="Group_6" filter="url(#filter5_d_1077_2604)">
<path id="Path 11" d="M46.8278 29.8293C48.5194 31.0114 53.8144 31.0114 54.7705 32.3512C55.7266 33.691 56.1673 38.1824 53.7407 37.9459C51.314 37.7093 48.0782 41.8071 48.0045 42.0436C47.9308 42.2801 42.6363 43.2257 42.1214 42.6738C41.6065 42.1219 44.1805 37.631 44.9171 37.5522C45.6536 37.4733 46.535 38.9703 46.9025 38.4978C47.7856 37.2627 49.0512 36.3492 50.5058 35.897C50.5058 35.897 42.8869 35.4245 41.0194 32.9814C39.1519 30.5383 46.8278 29.8293 46.8278 29.8293Z" fill="url(#paint5_linear_1077_2604)"/>
</g>
<g id="Path 12" style="mix-blend-mode:multiply" opacity="0.3">
<path d="M46.295 35.2152C46.4541 34.9388 46.6081 34.6593 46.7525 34.3743L46.7561 34.3672C46.8354 34.064 46.9635 33.603 46.9899 33.4201C47.1521 32.3032 47.688 31.2732 48.5112 30.4964C47.9165 30.3687 47.3473 30.1432 46.8272 29.8293C46.8272 29.8293 39.1519 30.5368 41.0179 32.9814C41.9191 34.1605 44.1597 34.8797 46.2371 35.3092C46.2559 35.2784 46.2762 35.2471 46.295 35.2152Z" fill="#191D8A"/>
</g>
<g id="Path 13" style="mix-blend-mode:multiply" opacity="0.3">
<path d="M44.5673 38.053C44.6609 37.8913 44.762 37.7351 44.8586 37.5754C44.0611 37.8433 41.6182 42.1351 42.1214 42.6738C42.2973 42.8623 43.0302 42.876 43.9223 42.8032C43.5489 41.1945 43.7783 39.5057 44.5673 38.053Z" fill="#191D8A"/>
</g>
<g id="Group_7" filter="url(#filter6_d_1077_2604)">
<path id="Path 14" d="M21.9017 15.1284C18.125 15.6338 14.4683 16.0856 12.156 18.0597C6.22008 23.1247 10.9468 30.3104 4.0232 34.9044C4.0232 34.9044 4.0232 41.9723 1.6047 45.271C-0.813794 48.5697 1.6047 49.629 1.6047 49.629C1.6047 49.629 0.985087 52.1383 0.985087 52.5517C0.985087 52.9651 6.29887 53.6686 7.45678 52.5517C8.61469 51.4348 4.90917 48.9195 4.87054 47.6787C4.83191 46.438 6.85291 38.7398 13.6032 36.6996C20.3534 34.6593 24.4 26.2844 22.1934 15.8825L21.9017 15.1284Z" fill="url(#paint6_linear_1077_2604)"/>
</g>
<g id="Path 15" style="mix-blend-mode:multiply" opacity="0.3">
<path d="M4.05065 51.5849C3.08957 51.5617 2.14976 51.2987 1.31751 50.8202C1.17121 51.39 1.05885 51.9678 0.981018 52.5507C0.981018 52.9646 6.2948 53.6676 7.45271 52.5507C7.91019 52.1075 7.60216 51.4434 7.06285 50.7267C6.16575 51.3016 5.11782 51.6002 4.05065 51.5849Z" fill="#191D8A"/>
</g>
<g id="Group 1" style="mix-blend-mode:overlay" opacity="0.5">
<path id="Path 16" d="M1.37751 46.3328C3.9551 43.1762 4.30379 36.1179 4.30379 36.1179C11.4464 31.9231 7.08064 24.4792 13.2585 19.7573C15.5251 18.0253 18.9154 17.7094 22.4735 17.4325C22.3942 16.92 22.3032 16.4035 22.1919 15.8799L21.9017 15.1269C18.125 15.6323 14.4683 16.0841 12.156 18.0582C6.22009 23.1232 10.9468 30.3089 4.02321 34.9029C4.02321 34.9029 4.02321 41.9708 1.60471 45.2695C1.06095 45.9348 0.69922 46.7285 0.554565 47.5736C0.782415 47.1313 1.05838 46.7153 1.37751 46.3328Z" fill="url(#paint7_linear_1077_2604)"/>
<path id="Path 17" d="M4.88885 47.3527C4.69982 47.8582 4.57582 48.3855 4.51982 48.922C4.50305 49.8418 6.45798 51.5733 6.98153 52.8362C7.15606 52.7718 7.31667 52.6749 7.45475 52.5507C8.61266 51.4343 4.90715 48.9184 4.86852 47.6777C4.86768 47.569 4.87447 47.4604 4.88885 47.3527Z" fill="url(#paint8_linear_1077_2604)"/>
</g>
<g id="Group_8" filter="url(#filter7_d_1077_2604)">
<path id="Path 18" d="M43.9574 0.543807C47.6426 0.249669 48.1031 3.40635 49.9452 6.4665C51.7872 9.52665 56.7625 26.0115 45.8 31.5395C42.5838 33.1666 39.7485 35.4491 37.4787 38.2384C35.209 41.0278 33.5558 44.2613 32.6268 47.7282C32.6268 47.7282 35.0219 51.4793 35.0219 52.5649C35.0219 53.6504 28.5335 53.6434 28.5335 52.5649C28.5335 51.4864 29.635 48.5359 29.268 48.077C28.901 47.6181 28.2275 46.763 29.696 43.7488C31.1644 40.7346 33.5519 33.3215 32.9999 28.1408C32.4479 22.96 31.4745 1.53892 43.9574 0.543807Z" fill="url(#paint9_linear_1077_2604)"/>
</g>
<g id="Group_9" filter="url(#filter8_d_1077_2604)">
<path id="Path 19" d="M46.7134 25.9246C43.0186 29.8301 38.1258 32.4072 32.8007 33.2528C32.2469 36.8742 31.2025 40.4045 29.696 43.7473C28.2275 46.7639 28.9005 47.6165 29.268 48.0759C29.6355 48.5354 28.5335 51.4858 28.5335 52.5638C28.5335 53.6418 35.0219 53.6499 35.0219 52.5638C35.0219 51.4777 32.6268 47.7272 32.6268 47.7272C33.5558 44.2602 35.209 41.0268 37.4787 38.2374C39.7485 35.4481 42.5838 33.1656 45.8 31.5385C52.0877 28.3677 53.1292 21.5949 52.5289 15.8158C51.3261 19.5542 49.3446 22.9986 46.7134 25.9246Z" fill="url(#paint10_linear_1077_2604)"/>
</g>
<g id="Path 20" style="mix-blend-mode:multiply" opacity="0.3">
<path d="M28.8003 51.0466C28.6608 51.5431 28.5714 52.0522 28.5335 52.5664C28.5335 53.6449 35.0219 53.6524 35.0219 52.5664C34.9162 51.941 34.6986 51.3395 34.3795 50.7904C33.5611 51.3342 32.609 51.6454 31.6258 51.6906C30.6426 51.7357 29.6656 51.5131 28.8003 51.0466Z" fill="#191D8A"/>
</g>
<path id="Path 21" style="mix-blend-mode:overlay" opacity="0.5" d="M45.3354 2.25052C45.8748 2.21104 46.4165 2.28517 46.9251 2.46805C47.4338 2.65094 47.8979 2.93845 48.2871 3.31183C47.3605 1.5935 46.324 0.356301 43.9574 0.545317C34.2234 1.32109 32.6731 14.5164 32.7239 22.7477C33.2571 14.5068 35.7539 2.39 45.3354 2.25052Z" fill="url(#paint11_linear_1077_2604)"/>
<g id="Path 22" style="mix-blend-mode:multiply" opacity="0.3">
<path d="M68.9226 22.7876C68.1246 22.49 67.4247 21.9794 66.8996 21.3119L67.2605 19.3292L68.8718 19.6123C69.2394 20.6364 69.2572 21.7524 68.9226 22.7876Z" fill="#191D8A"/>
</g>
<g id="Group_10" filter="url(#filter9_d_1077_2604)">
<path id="Path 23" d="M66.9743 17.4502C66.9743 17.4502 70.5857 17.5235 71.1988 17.9616C71.8118 18.3998 75.6962 24.3139 78.8309 23.4376C81.9656 22.5612 79.785 25.2631 76.7865 25.7745C73.7881 26.286 71.7442 20.8823 68.4732 21.6121C65.2023 22.3419 66.9743 17.4502 66.9743 17.4502Z" fill="url(#paint12_linear_1077_2604)"/>
</g>
</g>
</g>
<defs>
<filter id="filter0_d_1077_2604" x="45.3679" y="0.625679" width="27.9452" height="36.7265" filterUnits="userSpaceOnUse" color-interpolation-filters="sRGB">
<feFlood flood-opacity="0" result="BackgroundImageFix"/>
<feColorMatrix in="SourceAlpha" type="matrix" values="0 0 0 0 0 0 0 0 0 0 0 0 0 0 0 0 0 0 127 0" result="hardAlpha"/>
<feOffset dx="2.076" dy="2.076"/>
<feGaussianBlur stdDeviation="1.038"/>
<feColorMatrix type="matrix" values="0 0 0 0 0 0 0 0 0 0.0235294 0 0 0 0 0.164706 0 0 0 0.4 0"/>
<feBlend mode="normal" in2="BackgroundImageFix" result="effect1_dropShadow_1077_2604"/>
<feBlend mode="normal" in="SourceGraphic" in2="effect1_dropShadow_1077_2604" result="shape"/>
</filter>
<filter id="filter1_d_1077_2604" x="45.3679" y="0.623154" width="21.019" height="28.7364" filterUnits="userSpaceOnUse" color-interpolation-filters="sRGB">
<feFlood flood-opacity="0" result="BackgroundImageFix"/>
<feColorMatrix in="SourceAlpha" type="matrix" values="0 0 0 0 0 0 0 0 0 0 0 0 0 0 0 0 0 0 127 0" result="hardAlpha"/>
<feOffset dx="2.076" dy="2.076"/>
<feGaussianBlur stdDeviation="1.038"/>
<feColorMatrix type="matrix" values="0 0 0 0 0 0 0 0 0 0.0235294 0 0 0 0 0.164706 0 0 0 0.4 0"/>
<feBlend mode="normal" in2="BackgroundImageFix" result="effect1_dropShadow_1077_2604"/>
<feBlend mode="normal" in="SourceGraphic" in2="effect1_dropShadow_1077_2604" result="shape"/>
</filter>
<filter id="filter2_d_1077_2604" x="4.48306" y="13.9509" width="11.0579" height="12.3835" filterUnits="userSpaceOnUse" color-interpolation-filters="sRGB">
<feFlood flood-opacity="0" result="BackgroundImageFix"/>
<feColorMatrix in="SourceAlpha" type="matrix" values="0 0 0 0 0 0 0 0 0 0 0 0 0 0 0 0 0 0 127 0" result="hardAlpha"/>
<feOffset dx="2.076" dy="2.076"/>
<feGaussianBlur stdDeviation="1.038"/>
<feColorMatrix type="matrix" values="0 0 0 0 0 0 0 0 0 0.0235294 0 0 0 0 0.164706 0 0 0 0.4 0"/>
<feBlend mode="normal" in2="BackgroundImageFix" result="effect1_dropShadow_1077_2604"/>
<feBlend mode="normal" in="SourceGraphic" in2="effect1_dropShadow_1077_2604" result="shape"/>
</filter>
<filter id="filter3_d_1077_2604" x="15.3267" y="4.69206" width="27.009" height="34.3295" filterUnits="userSpaceOnUse" color-interpolation-filters="sRGB">
<feFlood flood-opacity="0" result="BackgroundImageFix"/>
<feColorMatrix in="SourceAlpha" type="matrix" values="0 0 0 0 0 0 0 0 0 0 0 0 0 0 0 0 0 0 127 0" result="hardAlpha"/>
<feOffset dx="2.076" dy="2.076"/>
<feGaussianBlur stdDeviation="1.038"/>
<feColorMatrix type="matrix" values="0 0 0 0 0 0 0 0 0 0.0235294 0 0 0 0 0.164706 0 0 0 0.4 0"/>
<feBlend mode="normal" in2="BackgroundImageFix" result="effect1_dropShadow_1077_2604"/>
<feBlend mode="normal" in="SourceGraphic" in2="effect1_dropShadow_1077_2604" result="shape"/>
</filter>
<filter id="filter4_d_1077_2604" x="15.3271" y="13.0033" width="27.0087" height="26.0183" filterUnits="userSpaceOnUse" color-interpolation-filters="sRGB">
<feFlood flood-opacity="0" result="BackgroundImageFix"/>
<feColorMatrix in="SourceAlpha" type="matrix" values="0 0 0 0 0 0 0 0 0 0 0 0 0 0 0 0 0 0 127 0" result="hardAlpha"/>
<feOffset dx="2.076" dy="2.076"/>
<feGaussianBlur stdDeviation="1.038"/>
<feColorMatrix type="matrix" values="0 0 0 0 0 0 0 0 0 0.0235294 0 0 0 0 0.164706 0 0 0 0.4 0"/>
<feBlend mode="normal" in2="BackgroundImageFix" result="effect1_dropShadow_1077_2604"/>
<feBlend mode="normal" in="SourceGraphic" in2="effect1_dropShadow_1077_2604" result="shape"/>
</filter>
<filter id="filter5_d_1077_2604" x="40.7266" y="29.8293" width="18.9593" height="17.1668" filterUnits="userSpaceOnUse" color-interpolation-filters="sRGB">
<feFlood flood-opacity="0" result="BackgroundImageFix"/>
<feColorMatrix in="SourceAlpha" type="matrix" values="0 0 0 0 0 0 0 0 0 0 0 0 0 0 0 0 0 0 127 0" result="hardAlpha"/>
<feOffset dx="2.076" dy="2.076"/>
<feGaussianBlur stdDeviation="1.038"/>
<feColorMatrix type="matrix" values="0 0 0 0 0 0 0 0 0 0.0235294 0 0 0 0 0.164706 0 0 0 0.4 0"/>
<feBlend mode="normal" in2="BackgroundImageFix" result="effect1_dropShadow_1077_2604"/>
<feBlend mode="normal" in="SourceGraphic" in2="effect1_dropShadow_1077_2604" result="shape"/>
</filter>
<filter id="filter6_d_1077_2604" x="0.529816" y="15.1284" width="26.4207" height="42.1769" filterUnits="userSpaceOnUse" color-interpolation-filters="sRGB">
<feFlood flood-opacity="0" result="BackgroundImageFix"/>
<feColorMatrix in="SourceAlpha" type="matrix" values="0 0 0 0 0 0 0 0 0 0 0 0 0 0 0 0 0 0 127 0" result="hardAlpha"/>
<feOffset dx="2.076" dy="2.076"/>
<feGaussianBlur stdDeviation="1.038"/>
<feColorMatrix type="matrix" values="0 0 0 0 0 0 0 0 0 0.0235294 0 0 0 0 0.164706 0 0 0 0.4 0"/>
<feBlend mode="normal" in2="BackgroundImageFix" result="effect1_dropShadow_1077_2604"/>
<feBlend mode="normal" in="SourceGraphic" in2="effect1_dropShadow_1077_2604" result="shape"/>
</filter>
<filter id="filter7_d_1077_2604" x="28.5335" y="0.524719" width="28.2978" height="57.0037" filterUnits="userSpaceOnUse" color-interpolation-filters="sRGB">
<feFlood flood-opacity="0" result="BackgroundImageFix"/>
<feColorMatrix in="SourceAlpha" type="matrix" values="0 0 0 0 0 0 0 0 0 0 0 0 0 0 0 0 0 0 127 0" result="hardAlpha"/>
<feOffset dx="2.076" dy="2.076"/>
<feGaussianBlur stdDeviation="1.038"/>
<feColorMatrix type="matrix" values="0 0 0 0 0 0 0 0 0 0.0235294 0 0 0 0 0.164706 0 0 0 0.4 0"/>
<feBlend mode="normal" in2="BackgroundImageFix" result="effect1_dropShadow_1077_2604"/>
<feBlend mode="normal" in="SourceGraphic" in2="effect1_dropShadow_1077_2604" result="shape"/>
</filter>
<filter id="filter8_d_1077_2604" x="28.5335" y="15.8158" width="28.2948" height="41.7116" filterUnits="userSpaceOnUse" color-interpolation-filters="sRGB">
<feFlood flood-opacity="0" result="BackgroundImageFix"/>
<feColorMatrix in="SourceAlpha" type="matrix" values="0 0 0 0 0 0 0 0 0 0 0 0 0 0 0 0 0 0 127 0" result="hardAlpha"/>
<feOffset dx="2.076" dy="2.076"/>
<feGaussianBlur stdDeviation="1.038"/>
<feColorMatrix type="matrix" values="0 0 0 0 0 0 0 0 0 0.0235294 0 0 0 0 0.164706 0 0 0 0.4 0"/>
<feBlend mode="normal" in2="BackgroundImageFix" result="effect1_dropShadow_1077_2604"/>
<feBlend mode="normal" in="SourceGraphic" in2="effect1_dropShadow_1077_2604" result="shape"/>
</filter>
<filter id="filter9_d_1077_2604" x="66.4951" y="17.4502" width="18.0189" height="12.5105" filterUnits="userSpaceOnUse" color-interpolation-filters="sRGB">
<feFlood flood-opacity="0" result="BackgroundImageFix"/>
<feColorMatrix in="SourceAlpha" type="matrix" values="0 0 0 0 0 0 0 0 0 0 0 0 0 0 0 0 0 0 127 0" result="hardAlpha"/>
<feOffset dx="2.076" dy="2.076"/>
<feGaussianBlur stdDeviation="1.038"/>
<feColorMatrix type="matrix" values="0 0 0 0 0 0 0 0 0 0.0235294 0 0 0 0 0.164706 0 0 0 0.4 0"/>
<feBlend mode="normal" in2="BackgroundImageFix" result="effect1_dropShadow_1077_2604"/>
<feBlend mode="normal" in="SourceGraphic" in2="effect1_dropShadow_1077_2604" result="shape"/>
</filter>
<linearGradient id="paint0_linear_1077_2604" x1="64.8307" y1="32.2881" x2="51.2269" y2="19.351" gradientUnits="userSpaceOnUse">
<stop stop-color="#46ABE4"/>
<stop offset="0.175" stop-color="#43A6E1"/>
<stop offset="0.373" stop-color="#3C98D8"/>
<stop offset="0.583" stop-color="#3081CA"/>
<stop offset="0.799" stop-color="#2062B7"/>
<stop offset="1" stop-color="#0E3EA1"/>
</linearGradient>
<linearGradient id="paint1_linear_1077_2604" x1="65.4565" y1="22.9949" x2="40.5219" y2="15.7747" gradientUnits="userSpaceOnUse">
<stop stop-color="#46ABE4"/>
<stop offset="0.175" stop-color="#43A6E1"/>
<stop offset="0.373" stop-color="#3C98D8"/>
<stop offset="0.583" stop-color="#3081CA"/>
<stop offset="0.799" stop-color="#2062B7"/>
<stop offset="1" stop-color="#0E3EA1"/>
</linearGradient>
<linearGradient id="paint2_linear_1077_2604" x1="3.45408" y1="13.317" x2="10.5231" y2="19.9128" gradientUnits="userSpaceOnUse">
<stop stop-color="#46ABE4"/>
<stop offset="0.175" stop-color="#43A6E1"/>
<stop offset="0.373" stop-color="#3C98D8"/>
<stop offset="0.583" stop-color="#3081CA"/>
<stop offset="0.799" stop-color="#2062B7"/>
<stop offset="1" stop-color="#0E3EA1"/>
</linearGradient>
<linearGradient id="paint3_linear_1077_2604" x1="25.7495" y1="14.0471" x2="28.0399" y2="29.7496" gradientUnits="userSpaceOnUse">
<stop stop-color="#46ABE4"/>
<stop offset="0.175" stop-color="#43A6E1"/>
<stop offset="0.373" stop-color="#3C98D8"/>
<stop offset="0.583" stop-color="#3081CA"/>
<stop offset="0.799" stop-color="#2062B7"/>
<stop offset="1" stop-color="#0E3EA1"/>
</linearGradient>
<linearGradient id="paint4_linear_1077_2604" x1="41.5895" y1="16.2395" x2="23.3123" y2="32.6086" gradientUnits="userSpaceOnUse">
<stop stop-color="#46ABE4"/>
<stop offset="0.175" stop-color="#43A6E1"/>
<stop offset="0.373" stop-color="#3C98D8"/>
<stop offset="0.583" stop-color="#3081CA"/>
<stop offset="0.799" stop-color="#2062B7"/>
<stop offset="1" stop-color="#0E3EA1"/>
</linearGradient>
<linearGradient id="paint5_linear_1077_2604" x1="52.5132" y1="41.5426" x2="45.5627" y2="32.5939" gradientUnits="userSpaceOnUse">
<stop stop-color="#46ABE4"/>
<stop offset="0.175" stop-color="#43A6E1"/>
<stop offset="0.373" stop-color="#3C98D8"/>
<stop offset="0.583" stop-color="#3081CA"/>
<stop offset="0.799" stop-color="#2062B7"/>
<stop offset="1" stop-color="#0E3EA1"/>
</linearGradient>
<linearGradient id="paint6_linear_1077_2604" x1="20.9725" y1="15.0904" x2="-8.57468" y2="34.1043" gradientUnits="userSpaceOnUse">
<stop stop-color="#46ABE4"/>
<stop offset="0.175" stop-color="#43A6E1"/>
<stop offset="0.373" stop-color="#3C98D8"/>
<stop offset="0.583" stop-color="#3081CA"/>
<stop offset="0.799" stop-color="#2062B7"/>
<stop offset="1" stop-color="#0E3EA1"/>
</linearGradient>
<linearGradient id="paint7_linear_1077_2604" x1="18.9446" y1="13.9588" x2="-6.71091" y2="35.9459" gradientUnits="userSpaceOnUse">
<stop stop-color="white"/>
<stop offset="0.24" stop-color="white" stop-opacity="0.992"/>
<stop offset="0.377" stop-color="white" stop-opacity="0.957"/>
<stop offset="0.488" stop-color="white" stop-opacity="0.902"/>
<stop offset="0.585" stop-color="white" stop-opacity="0.827"/>
<stop offset="0.673" stop-color="white" stop-opacity="0.725"/>
<stop offset="0.754" stop-color="white" stop-opacity="0.6"/>
<stop offset="0.831" stop-color="white" stop-opacity="0.455"/>
<stop offset="0.903" stop-color="white" stop-opacity="0.282"/>
<stop offset="0.97" stop-color="white" stop-opacity="0.094"/>
<stop offset="1" stop-color="white" stop-opacity="0"/>
</linearGradient>
<linearGradient id="paint8_linear_1077_2604" x1="6.97116" y1="48.4933" x2="4.30025" y2="50.1572" gradientUnits="userSpaceOnUse">
<stop stop-color="white"/>
<stop offset="0.24" stop-color="white" stop-opacity="0.992"/>
<stop offset="0.377" stop-color="white" stop-opacity="0.957"/>
<stop offset="0.488" stop-color="white" stop-opacity="0.902"/>
<stop offset="0.585" stop-color="white" stop-opacity="0.827"/>
<stop offset="0.673" stop-color="white" stop-opacity="0.725"/>
<stop offset="0.754" stop-color="white" stop-opacity="0.6"/>
<stop offset="0.831" stop-color="white" stop-opacity="0.455"/>
<stop offset="0.903" stop-color="white" stop-opacity="0.282"/>
<stop offset="0.97" stop-color="white" stop-opacity="0.094"/>
<stop offset="1" stop-color="white" stop-opacity="0"/>
</linearGradient>
<linearGradient id="paint9_linear_1077_2604" x1="47.5121" y1="2.16312" x2="21.6731" y2="20.3683" gradientUnits="userSpaceOnUse">
<stop stop-color="#46ABE4"/>
<stop offset="0.175" stop-color="#43A6E1"/>
<stop offset="0.373" stop-color="#3C98D8"/>
<stop offset="0.583" stop-color="#3081CA"/>
<stop offset="0.799" stop-color="#2062B7"/>
<stop offset="1" stop-color="#0E3EA1"/>
</linearGradient>
<linearGradient id="paint10_linear_1077_2604" x1="49.1756" y1="17.0928" x2="20.8867" y2="37.5869" gradientUnits="userSpaceOnUse">
<stop stop-color="#46ABE4"/>
<stop offset="0.175" stop-color="#43A6E1"/>
<stop offset="0.373" stop-color="#3C98D8"/>
<stop offset="0.583" stop-color="#3081CA"/>
<stop offset="0.799" stop-color="#2062B7"/>
<stop offset="1" stop-color="#0E3EA1"/>
</linearGradient>
<linearGradient id="paint11_linear_1077_2604" x1="49.9214" y1="7.37046" x2="32.6" y2="10.381" gradientUnits="userSpaceOnUse">
<stop stop-color="white"/>
<stop offset="0.24" stop-color="white" stop-opacity="0.992"/>
<stop offset="0.377" stop-color="white" stop-opacity="0.957"/>
<stop offset="0.488" stop-color="white" stop-opacity="0.902"/>
<stop offset="0.585" stop-color="white" stop-opacity="0.827"/>
<stop offset="0.673" stop-color="white" stop-opacity="0.725"/>
<stop offset="0.754" stop-color="white" stop-opacity="0.6"/>
<stop offset="0.831" stop-color="white" stop-opacity="0.455"/>
<stop offset="0.903" stop-color="white" stop-opacity="0.282"/>
<stop offset="0.97" stop-color="white" stop-opacity="0.094"/>
<stop offset="1" stop-color="white" stop-opacity="0"/>
</linearGradient>
<linearGradient id="paint12_linear_1077_2604" x1="79.9599" y1="24.4546" x2="72.0948" y2="15.7557" gradientUnits="userSpaceOnUse">
<stop stop-color="white"/>
<stop offset="0.258" stop-color="#F9F9F9"/>
<stop offset="0.593" stop-color="#E9E9E9"/>
<stop offset="0.969" stop-color="#CECECE"/>
<stop offset="1" stop-color="#CCCCCC"/>
</linearGradient>
<clipPath id="clip0_1077_2604">
<rect width="83" height="56" fill="white"/>
</clipPath>
</defs>
</svg>
